{"title":"Dragon Ball Z Battle of Gods HDRip EngSub 2013.flv","uid":8921963,"size":498682769,"categoryP":"video","categoryS":"movies","magnet":"?xt=urn:btih:d92fc7bb5a6ea56571be1512d66f85578ecdbc18&amp;dn=Dragon+Ball+Z+Battle+of+Gods+HDRip+EngSub+2013.flv&amp;tr=udp%3A%2F%2Ftracker.openbittorrent.com%3A80&amp;tr=udp%3A%2F%2Fopen.demonii.com%3A1337&amp;tr=udp%3A%2F%2Ftracker.coppersurfer.tk%3A6969&amp;tr=udp%3A%2F%2Fexodus.desync.com%3A6969","seeders":1,"leechers":0,"uploader":"globeplus","files":-1,"time":1379274560,"description":"Dragon Ball Z Battle of Gods HDRip EngSub 2013.flv\n\nFormat                                   : Flash Video\nFile size                                : 476 MiB\nDuration                                 : 1h 25mn\nOverall bit rate                         : 781 Kbps\nWriting application                      : Encoded By\nTagging application                      : Yet Another Metadata Injector for FLV - Version 1.9\n\nVideo\n\nFormat                                   : AVC\nFormat/Info                              : Advanced Video Codec\nFormat profile                           : &lt;a class=&quot;__cf_email__&quot; href=&quot;/cdn-cgi/l/email-protection&quot; data-cfemail=&quot;440c2d232c0408776a74&quot;&gt;[email&amp;#160;protected]&lt;/a&gt;&lt;script cf-hash='f9e31' type=&quot;text/javascript&quot;&gt;\n/* &lt;![CDATA[ */!function(){try{var t=&quot;currentScript&quot;in document?document.currentScript:function(){for(var t=document.getElementsByTagName(&quot;script&quot;),e=t.length;e--;)if(t[e].getAttribute(&quot;cf-hash&quot;))return t[e]}();if(t&amp;&amp;t.previousSibling){var e,r,n,i,c=t.previousSibling,a=c.getAttribute(&quot;data-cfemail&quot;);if(a){for(e=&quot;&quot;,r=parseInt(a.substr(0,2),16),n=2;a.length-n;n+=2)i=parseInt(a.substr(n,2),16)^r,e+=String.fromCharCode(i);e=document.createTextNode(e),c.parentNode.replaceChild(e,c)}}}catch(u){}}();/* ]]&gt; */&lt;/script&gt;\nFormat settings, CABAC                   : Yes\nFormat settings, ReFrames                : 4 frames\nCodec ID                                 : 7\nDuration                                 : 1h 25mn\nBit rate                                 : 661 Kbps\nNominal bit rate                         : 700 Kbps\nWidth                                    : 720 pixels\nHeight                                   : 400 pixels\nDisplay aspect ratio                     : 16:9\nFrame rate mode                          : Constant\nFrame rate                               : 23.976 fps\nColor space                              : YUV\nChroma subsampling                       : 4:2:0\nBit depth                                : 8 bits\nScan type                                : Progressive\nBits/(Pixel*Frame)                       : 0.096\nStream size                              : 413 MiB (87%)\nWriting library                          : x264 core 128 r2 198a7ea\n\n\nAudio\n\nFormat                                   : AAC\nFormat/Info                              : Advanced Audio Codec\nFormat profile                           : LC\nCodec ID                                 : 10\nDuration                                 : 1h 25mn\nBit rate                                 : 94.4 Kbps\nChannel(s)                               : 2 channels\nChannel positions                        : Front: L R\nSampling rate                            : 44.1 KHz\nCompression mode                         : Lossy\nDelay relative to video                  : 19ms\nStream size                              : 61.1 MiB (13%)\n\nPlot :\n\nThe God of Destruction's arrival interrupts Bulma's birthday party and it appears that Vegeta already knows Birus as he casts his pride aside in order to put Birus in a good mood. Pilaf, Mai, and Shu sneak into the party in order to steal the Dragon Balls, but are not recognized as they have been turned into children; before the events of the film, they gathered all the Dragon Balls themselves and wished for youth, but Shenlong made them a little too young. Discovering the three of them, Trunks mistakes Pilaf for a monkey and fibs to Goten that Mai is his girlfriend, which leads to the trio being brought in front of the partygoers. When Mai accidentally drops the Dragon Ball she stole, she takes Trunks hostage, but no one seems concerned.\n\n\n\n* enjoy ...","torrent":{"xt":"urn:btih:d92fc7bb5a6ea56571be1512d66f85578ecdbc18","amp;dn":"Dragon+Ball+Z+Battle+of+Gods+HDRip+EngSub+2013.flv","amp;tr":["udp%3A%2F%2Ftracker.openbittorrent.com%3A80","udp%3A%2F%2Fopen.demonii.com%3A1337","udp%3A%2F%2Ftracker.coppersurfer.tk%3A6969","udp%3A%2F%2Fexodus.desync.com%3A6969"],"infoHash":"d92fc7bb5a6ea56571be1512d66f85578ecdbc18","infoHashBuffer":{"type":"Buffer","data":[217,47,199,187,90,110,165,101,113,190,21,18,214,111,133,87,142,205,188,24]},"announce":[],"urlList":[]}}